<?xml version="1.0" encoding="utf-8"?>
<!-- Generator: Adobe Illustrator 18.1.0, SVG Export Plug-In . SVG Version: 6.00 Build 0)  -->
<svg version="1.1" id="Layer_1" xmlns="http://www.w3.org/2000/svg" xmlns:xlink="http://www.w3.org/1999/xlink" x="0px" y="0px"
	 width="370.5px" height="66.7px" viewBox="0 0 370.5 66.7" enable-background="new 0 0 370.5 66.7" xml:space="preserve">
<g>
	<path fill="#1088BD" d="M0,1.6h12.1v9.8h0.3C15.4,4.7,23.5,0,33.2,0c12.3,0,23.1,7.4,23.1,24.3v40.9H44.2V27.6
		c0-11.9-6.8-16.4-14.5-16.4c-10.1,0-17.7,6.4-17.7,21.2v32.7H0V1.6z"/>
	<path fill="#1088BD" d="M74.9,37.8c0,11.1,10.3,18.5,21.4,18.5c7.4,0,12.7-3.8,17.4-9.5l9.1,7c-6.7,8.7-15.9,13-28.1,13
		C74.6,66.7,62,52.3,62,33.4C62,14.3,75.8,0,94.8,0c22.4,0,31,17.2,31,33.5v4.3H74.9z M112.9,28.1c-0.3-10.6-6.2-18.5-18.4-18.5
		c-11.9,0-19.7,10.1-19.7,18.5H112.9z"/>
	<path fill="#1088BD" d="M148.9,31.2L126.4,1.6H142l15.4,22.5l15.1-22.5h14.6l-21.7,29.6l25.7,33.9h-15.5l-18.8-26.7l-18.8,26.7
		h-14.9L148.9,31.2z"/>
	<path fill="#1088BD" d="M194.4,1.6h11.3v9.9h0.3c1.2-3.8,9-11.5,20.4-11.5c9.4,0,15.8,4,19.8,11.8C250.2,4,258.5,0,266.2,0
		c19.6,0,24.1,13.9,24.1,28.1v37h-12.1V29.8c0-9.6-2-18.5-13.7-18.5c-11.7,0-16.2,7.9-16.2,19.2v34.7h-12.1V31.9
		c0-12.1-1.7-20.6-13.4-20.6c-8.7,0-16.5,6.6-16.5,20.9v33h-12.1V1.6z"/>
	<g>
		<circle fill="#1088BD" cx="332.5" cy="32.7" r="7.7"/>
		<g>
			<path fill="#1088BD" d="M365.3,29.4c-2-16.5-16-29.3-33.1-29.3c-13.8,0-25.7,8.4-30.7,20.4l10.4,4.1c3.4-7.8,11.2-13.3,20.3-13.3
				c10.9,0,19.9,7.8,21.8,18.1h-4.3l10.4,10.2l10.4-10.2H365.3z"/>
			<path fill="#1088BD" d="M352.5,42.4c-3.4,7.8-11.2,13.2-20.3,13.2c-10.7,0-19.5-7.5-21.7-17.6h4.7l-10.4-10.2L294.6,38h4.7
				c2.2,16.2,16.2,28.7,33,28.7c13.8,0,25.6-8.4,30.7-20.3L352.5,42.4z"/>
		</g>
	</g>
</g>
</svg>
