<?xml version="1.0" encoding="utf-8"?>
<!-- Generator: Adobe Illustrator 18.1.0, SVG Export Plug-In . SVG Version: 6.00 Build 0)  -->
<svg version="1.1" id="Layer_1" xmlns="http://www.w3.org/2000/svg" xmlns:xlink="http://www.w3.org/1999/xlink" x="0px" y="0px"
	 width="371.3px" height="68px" viewBox="0 0 371.3 68" enable-background="new 0 0 371.3 68" xml:space="preserve">
<g>
	<path fill="#FFFFFF" d="M0.4,2.3h12.1V12h0.3C15.8,5.3,23.9,0.6,33.7,0.6C46,0.6,56.7,8,56.7,24.9v40.9H44.6V28.3
		c0-11.9-6.8-16.4-14.5-16.4c-10.1,0-17.7,6.4-17.7,21.2v32.7H0.4V2.3z"/>
	<path fill="#FFFFFF" d="M75.3,38.4c0,11.1,10.3,18.5,21.4,18.5c7.4,0,12.7-3.8,17.4-9.5l9.1,7c-6.7,8.7-15.9,13-28.1,13
		C75,67.4,62.4,52.9,62.4,34c0-19,13.8-33.4,32.8-33.4c22.4,0,31,17.2,31,33.5v4.3H75.3z M113.3,28.8c-0.3-10.6-6.2-18.5-18.4-18.5
		c-11.9,0-19.7,10.1-19.7,18.5H113.3z"/>
	<path fill="#FFFFFF" d="M149.3,31.9L126.8,2.3h15.5l15.4,22.5l15.1-22.5h14.6l-21.7,29.6l25.7,33.9H176l-18.8-26.7l-18.8,26.7
		h-14.9L149.3,31.9z"/>
	<path fill="#FFFFFF" d="M194.8,2.3H206v9.9h0.3c1.2-3.8,9-11.5,20.4-11.5c9.4,0,15.8,4,19.8,11.8c4.2-7.8,12.5-11.8,20.1-11.8
		c19.6,0,24.1,13.9,24.1,28.1v37h-12.1V30.4c0-9.6-2-18.5-13.7-18.5c-11.7,0-16.2,7.9-16.2,19.2v34.7h-12.1V32.5
		c0-12.1-1.7-20.6-13.4-20.6c-8.7,0-16.5,6.6-16.5,20.9v33h-12.1V2.3z"/>
	<g>
		<circle fill="#FFFFFF" cx="333" cy="33.3" r="7.7"/>
		<g>
			<path fill="#FFFFFF" d="M365.7,30.1c-2-16.5-16-29.3-33.1-29.3c-13.8,0-25.7,8.4-30.7,20.4l10.4,4.1c3.4-7.8,11.2-13.3,20.3-13.3
				c10.9,0,19.9,7.8,21.8,18.1h-4.3l10.4,10.2l10.4-10.2H365.7z"/>
			<path fill="#FFFFFF" d="M353,43c-3.4,7.8-11.2,13.2-20.3,13.2c-10.7,0-19.5-7.5-21.7-17.6h4.7l-10.4-10.2L295,38.7h4.7
				c2.2,16.2,16.2,28.7,33,28.7c13.8,0,25.6-8.4,30.7-20.3L353,43z"/>
		</g>
	</g>
</g>
</svg>
