<?xml version="1.0" encoding="utf-8"?>
<!-- Generator: Adobe Illustrator 21.0.0, SVG Export Plug-In . SVG Version: 6.00 Build 0)  -->
<svg version="1.1" id="Layer_1" xmlns="http://www.w3.org/2000/svg" xmlns:xlink="http://www.w3.org/1999/xlink" x="0px" y="0px"
	 width="314px" height="86px" viewBox="0 0 314 86" style="enable-background:new 0 0 314 86;" xml:space="preserve">
<style type="text/css">
	.st0{fill:#4D4D4F;}
	.st1{fill:#0088CE;}
	.st2{fill:#FF8300;}
</style>
<g>
	<path class="st0" d="M16,5.2h9v7.3h0.2c2.3-5,8.3-8.5,15.6-8.5C50,4,58,9.5,58,22.1v30.5h-9v-28c0-8.9-5.1-12.2-10.8-12.2
		c-7.5,0-13.2,4.8-13.2,15.8v24.4h-9V5.2z"/>
	<path class="st0" d="M71.9,32.2c0,8.3,7.7,13.8,16,13.8c5.5,0,9.5-2.8,13-7.1l6.8,5.2c-5,6.5-11.9,9.7-21,9.7
		c-15,0-24.4-10.8-24.4-24.9C62.3,14.7,72.6,4,86.8,4c16.7,0,23.1,12.8,23.1,25v3.2H71.9z M100.3,25c-0.2-7.9-4.6-13.8-13.7-13.8
		c-8.9,0-14.7,7.5-14.7,13.8H100.3z"/>
	<path class="st0" d="M127.1,27.3L110.3,5.2h11.6L133.4,22l11.3-16.8h10.9l-16.2,22.1l19.2,25.3H147l-14-19.9l-14,19.9h-11.1
		L127.1,27.3z"/>
	<path class="st0" d="M161,5.2h8.4v7.4h0.2c0.9-2.8,6.7-8.6,15.2-8.6c7,0,11.8,3,14.8,8.8C202.8,7,209,4,214.7,4
		c14.6,0,18,10.4,18,21v27.6h-9V26.2c0-7.2-1.5-13.8-10.2-13.8c-8.7,0-12.1,5.9-12.1,14.3v25.9h-9V27.8c0-9-1.3-15.4-10-15.4
		c-6.5,0-12.3,4.9-12.3,15.6v24.6h-9V5.2z"/>
	<circle class="st1" cx="264.2" cy="28.4" r="5.8"/>
	<g>
		<path class="st0" d="M264,12.4c8.1,0,14.8,5.8,16.3,13.5H277l7.7,7.6l7.7-7.6h-3.9c-1.5-12.3-12-21.9-24.7-21.9
			c-10.3,0-19.2,6.3-22.9,15.2l7.8,3C251.3,16.5,257.2,12.4,264,12.4z"/>
		<path class="st0" d="M264,45.5c-8,0-14.6-5.6-16.2-13.1h3.5l-7.7-7.6l-7.7,7.6h3.5c1.7,12.1,12.1,21.4,24.6,21.4
			c10.3,0,19.1-6.2,22.9-15.2l-7.8-3C276.5,41.4,270.7,45.5,264,45.5z"/>
	</g>
	<g>
		<g>
			<g>
				<g>
					<path class="st0" d="M304.2,10c0,3.1-2.6,5.8-5.8,5.8c-3.2,0-5.8-2.6-5.8-5.8c0-3.2,2.5-5.8,5.8-5.8
						C301.7,4.1,304.2,6.8,304.2,10z M303.1,10c0-2.6-2-4.7-4.6-4.7c-2.7,0-4.7,2.2-4.7,4.7c0,2.6,2,4.7,4.7,4.7
						C301,14.7,303.1,12.6,303.1,10z M299.3,10.7L301,13h-1.2l-1.5-2.3h-0.9V13h-1V6.9h2.2c1.4,0,2.1,0.8,2.1,2
						C300.7,9.8,300.2,10.4,299.3,10.7z M297.4,9.9h1c0.9,0,1.3-0.5,1.3-1c0-0.6-0.4-1-1.2-1h-1.1V9.9z"/>
				</g>
			</g>
		</g>
	</g>
	<g>
		<path class="st0" d="M40.5,70.3h-5.7V69h12.8v1.3H42v10.5h-1.4V70.3z"/>
		<path class="st0" d="M49.2,69h1.3v4.5c0.9-0.8,2.1-1.5,3.6-1.5c1.1,0,3.5,0.2,3.5,3.1v5.6h-1.3v-5.3c0-2-1.4-2.3-2.3-2.3
			c-1.4,0-2.6,0.9-3.4,1.7v5.9h-1.3V69z"/>
		<path class="st0" d="M68.3,79c-0.9,0.9-1.7,2-4.6,2c-2.8,0-4.8-1.9-4.8-4.5c0-2.7,2-4.4,4.6-4.4c2.7,0,5.1,1.4,5,4.8h-8.3
			c0.1,1.6,1.4,3.1,3.6,3.1c2.2,0,2.9-1,3.4-1.6L68.3,79z M67.2,75.7c-0.3-1.4-1.5-2.5-3.5-2.5c-1.9,0-3,1-3.4,2.5H67.2z"/>
		<path class="st2" d="M74.7,69h2.5l4.4,9.4l4.5-9.4h2.5l-5.8,11.8h-2.4L74.7,69z"/>
		<path class="st2" d="M87.2,76.4c0-2.3,1.4-4.6,4.9-4.6c3.5,0,4.9,2.3,4.9,4.6c0,3.5-2.5,4.6-4.9,4.6S87.2,79.9,87.2,76.4z
			 M94.9,76.4c0-2-1.3-2.9-2.8-2.9c-1.5,0-2.8,0.8-2.8,2.9c0,1.8,1,3,2.8,3C93.9,79.4,94.9,78.2,94.9,76.4z"/>
		<path class="st2" d="M97.9,72.1h2v1.1c0.6-0.6,1.5-1.4,3.3-1.4c1.8,0,3.4,0.8,3.4,3.4v5.6h-2V76c0-1.7-0.5-2.4-1.9-2.4
			c-1.6,0-2.2,0.7-2.7,1.3v6h-2V72.1z"/>
		<path class="st2" d="M117,79.4c0,0.6,0,1.2,0.2,1.4h-2.1c-0.1-0.3-0.1-0.6-0.1-0.9c-0.8,0.5-2.1,1.2-3.8,1.2
			c-1.1,0-3.4-0.5-3.4-2.6c0-2.9,4.4-3.3,7.2-3.5v-0.4c0-0.7-0.6-1.1-2.2-1.1c-1.8,0-2.2,0.7-2.3,1.1h-2.1c0.5-2.4,2.8-2.8,4.4-2.8
			c4.2,0,4.3,2,4.3,3.2V79.4z M115,76.4c-1.2,0-2.2,0.2-3.1,0.4c-1.2,0.3-1.8,0.7-1.8,1.5c0,0.7,0.5,1.2,1.5,1.2
			c1.5,0,2.7-0.7,3.5-1.1V76.4z"/>
		<path class="st2" d="M128.5,73.5c-0.2,0-0.5-0.2-0.7-0.1c-0.2,0-0.5,0.1-0.6,0.2c0.1,0.2,0.4,0.7,0.4,1.4c0,2.4-2.1,3.2-4.4,3.2
			c-0.8,0-1.4-0.1-1.8-0.3c-0.2,0.1-0.5,0.4-0.5,0.7s0.2,0.5,1.9,0.5h2.7c2,0.1,3.1,0.6,3.1,2c0,2.1-3,2.7-5.6,2.7
			c-2.4,0-4.5-0.5-4.5-1.9c0-1,0.9-1.2,1.7-1.3v0c-0.7-0.1-1.3-0.5-1.3-1.3c0-0.9,0.8-1.5,1.5-1.6v0c-1-0.5-1.4-1.4-1.4-2.5
			c0-2.6,2.3-3.2,4.5-3.2c1.5,0,2.4,0.4,3,0.8c0.3-0.3,1-0.9,1.8-0.9h0.3V73.5z M121.7,80.9c-0.5,0-1.1,0.1-1.1,0.6
			c0,0.7,0.9,0.8,2.5,0.8c1.6,0,3.3-0.2,3.3-0.9c0-0.6-0.4-0.6-2.6-0.6H121.7z M125.6,75c0-1.3-1.3-1.7-2.4-1.7
			c-1.1,0-2.3,0.4-2.3,1.7c0,1.4,1.2,1.7,2.3,1.7C124.2,76.7,125.6,76.3,125.6,75z"/>
		<path class="st2" d="M138.9,78.2c-0.1,0.7-1.3,2.9-4.5,2.9c-3.1,0-5-1.9-5-4.7c0-2.5,1.6-4.6,4.8-4.6c3.3,0,4.8,2.1,4.8,5.2h-7.6
			c0.1,0.5,0.4,2.4,2.9,2.5c1.3,0,2.1-0.6,2.4-1.3H138.9z M136.9,75.4c-0.3-1.5-1.3-2-2.7-2c-1.1,0-2.3,0.4-2.7,2H136.9z"/>
		<path class="st2" d="M141.5,70.4c1.3,0,2.4,1.1,2.4,2.4c0,1.3-1.1,2.4-2.4,2.4c-1.3,0-2.4-1.1-2.4-2.4
			C139.1,71.5,140.2,70.4,141.5,70.4z M141.5,74.8c1.1,0,2-0.9,2-2c0-1.1-0.9-2-2-2c-1.1,0-2,0.9-2,2
			C139.5,74,140.4,74.8,141.5,74.8z M141.5,73h-0.5v1.3h-0.4v-2.9h1.1c0.6,0,0.9,0.3,0.9,0.8c0,0.5-0.3,0.7-0.7,0.8l0.9,1.3h-0.5
			L141.5,73z M140.9,72.6h0.6c0.4,0,0.7,0,0.7-0.5c0-0.4-0.3-0.4-0.7-0.4h-0.6V72.6z"/>
		<path class="st0" d="M154.2,69h1.7l6,11.7h-1.6l-1.5-3.1h-7.6l-1.5,3.1h-1.6L154.2,69z M158.2,76.5l-3.2-6.3l-3.2,6.3H158.2z"/>
		<path class="st0" d="M163.8,69h6.9c2.4,0,4.5,0.7,4.5,3.4c0,2.7-2.2,3.4-4.5,3.4h-5.5v5h-1.4V69z M165.2,74.5h5.1
			c2.4,0,3.6-0.5,3.6-2.1c0-1.6-1.2-2.1-3.6-2.1h-5.1V74.5z"/>
		<path class="st0" d="M177.2,69h1.4v11.7h-1.4V69z"/>
		<path class="st0" d="M187.6,69h6.9c2.4,0,4.5,0.7,4.5,3.4c0,2.7-2.2,3.4-4.5,3.4H189v5h-1.4V69z M189,74.5h5.1
			c2.4,0,3.6-0.5,3.6-2.1c0-1.6-1.2-2.1-3.6-2.1H189V74.5z"/>
		<path class="st0" d="M200.6,69h1.3v11.7h-1.3V69z"/>
		<path class="st0" d="M212.6,79.5c0,0.5,0.1,0.9,0.1,1.3h-1.3c-0.1-0.3-0.2-0.7-0.2-1c-1.2,0.8-2.6,1.3-4.2,1.3
			c-1.4,0-3.4-0.4-3.4-2.6c0-2.9,4.4-3,7.7-3.4v-0.3c0-1.1-1.4-1.6-2.7-1.6c-2.2,0-3,0.9-3.5,1.4l-1-0.7c0.5-0.6,1.4-1.8,4.3-1.8
			c1.9,0,4.1,0.6,4.1,2.7V79.5z M211.3,76.1c-3.8,0.4-6.4,0.7-6.4,2.4c0,1.3,1.5,1.5,2.1,1.5c1.8,0,3.5-0.9,4.3-1.3V76.1z"/>
		<path class="st0" d="M220.5,73.4h-3.4v5.1c0,0.9,0.4,1.4,1.7,1.4c0.6,0,1.1-0.1,1.9-0.3v1.1c-0.9,0.1-1.6,0.2-2.1,0.2
			c-2.8,0-2.8-1.7-2.8-2.4v-5.2h-1.8v-1.1h1.8v-2.8h1.3v2.8h3.4V73.4z"/>
		<path class="st0" d="M223.9,73.6h-2.1v-1.1h2.1v-0.6c0-1.4,0.4-3.1,3-3.1c1.3,0,1.9,0.1,2.2,0.2v1.2c-0.6-0.1-1.1-0.3-1.8-0.3
			c-1.8,0-2.1,0.9-2.1,2.1v0.5h3.5v1.1h-3.5v7.2h-1.3V73.6z"/>
		<path class="st0" d="M229.3,76.4c0-2.4,1.9-4.3,4.9-4.3c3,0,4.9,1.9,4.9,4.3c0,3-2,4.6-4.9,4.6S229.3,79.4,229.3,76.4z
			 M237.7,76.6c0-1.5-1-3.4-3.6-3.4s-3.6,1.8-3.6,3.4c0,2,1.4,3.4,3.6,3.4S237.7,78.6,237.7,76.6z"/>
		<path class="st0" d="M240.8,72.3h1.3v1.8c0.8-0.9,1.8-2,3.5-2c0.3,0,0.5,0,0.8,0.1v1.3c-0.2,0-0.5-0.1-1.1-0.1
			c-1.9,0-3.2,2.1-3.2,2.4v5.1h-1.3V72.3z"/>
		<path class="st0" d="M247.9,72.3h1.3v1.2c1-0.8,2-1.4,3.4-1.4c1.8,0,2.3,0.9,2.7,1.5c1.3-1.1,2.2-1.5,3.4-1.5
			c0.8,0,3.1,0.2,3.1,2.6v6.1h-1.3v-5.6c0-0.5,0-2-1.9-2c-1.5,0-2.6,1-3.1,1.5v6.1h-1.3v-5.6c0-0.5,0-2-1.8-2c-1.5,0-2.6,1-3.1,1.5
			v6.1h-1.3V72.3z"/>
	</g>
</g>
</svg>
