<?xml version="1.0" encoding="utf-8"?>
<!-- Generator: Adobe Illustrator 18.1.0, SVG Export Plug-In . SVG Version: 6.00 Build 0)  -->
<svg version="1.1" id="Layer_1" xmlns="http://www.w3.org/2000/svg" xmlns:xlink="http://www.w3.org/1999/xlink" x="0px" y="0px"
	 width="90.5px" height="40px" viewBox="-252 278.3 90.5 40" enable-background="new -252 278.3 90.5 40" xml:space="preserve">
<path fill="#3CA8DF" d="M-227.8,281c-0.9,0.4-1.8,0.6-2.8,0.8c1-0.6,1.8-1.6,2.2-2.8c-0.9,0.6-2,1-3.1,1.2c-1-0.9-2.3-1.5-3.7-1.5
	c-2.8,0-4.9,2.2-4.9,4.9c0,0.4,0.1,0.8,0.1,1.1c-4.1-0.3-7.7-2.3-10.1-5.2c-0.4,0.7-0.6,1.6-0.6,2.5c0,1.7,0.8,3.2,2.2,4.1
	c-0.8,0-1.6-0.2-2.3-0.6v0.1c0,2.4,1.7,4.4,3.9,4.8c-0.4,0.1-0.8,0.1-1.3,0.1c-0.3,0-0.6,0-0.9-0.1c0.6,2,2.5,3.4,4.6,3.4
	c-1.7,1.3-3.8,2.1-6.1,2.1c-0.4,0-0.8,0-1.2-0.1c2.2,1.4,4.7,2.2,7.5,2.2c9,0,14-7.5,14-14c0-0.2,0-0.4,0-0.6
	C-229.3,282.8-228.6,282-227.8,281z"/>
<g>
	<path fill="#306BB3" d="M-209.1,289.1h-2.5v-3.3h2.5v-2.9c0-2.3,1.5-4.5,4.9-4.5c1.4,0,2.5,0.2,2.5,0.2l-0.1,3.1h-2.1
		c-1.3,0-1.4,0.7-1.4,1.6v2.5h3.7l-0.4,3.3h-3.5v9h-3.7L-209.1,289.1L-209.1,289.1z"/>
</g>
<g>
	<path fill="#0D649C" d="M-179.4,283c-1.5,0-2.5-1.1-2.5-2.3c0-1.3,1-2.3,2.5-2.3c1.6,0,2.5,1,2.5,2.3S-177.8,283-179.4,283
		L-179.4,283z M-177.2,285.1v13h-4.2v-13H-177.2z M-170.6,290.6c0-1.7,1.1-2.5,2.3-2.5c1.3,0,2.3,0.8,2.3,3v7.1h4.2v-7.5
		c0-3.8-2.1-5.9-5-5.9c-1.7,0-3,1-3.8,2.2l-0.1-1.8h-4.2c0,0.4,0.1,3,0.1,3v10.1h4.2V290.6z"/>
</g>
<path fill="#BABABA" d="M-227.8,301.1c-0.9,0.4-1.8,0.6-2.8,0.8c1-0.6,1.8-1.6,2.2-2.8c-0.9,0.6-2,1-3.1,1.2c-0.9-1-2.2-1.6-3.6-1.6
	c-2.8,0-4.9,2.2-4.9,4.9c0,0.4,0.1,0.8,0.1,1.1c-4.1-0.2-7.7-2.2-10.3-5.1c-0.4,0.7-0.6,1.6-0.6,2.5c0,1.7,0.8,3.2,2.2,4.1
	c-0.8,0-1.6-0.2-2.3-0.6v0.1c0,2.4,1.7,4.4,3.9,4.8c-0.4,0.1-0.8,0.1-1.3,0.1c-0.3,0-0.6,0-0.9-0.1c0.6,2,2.5,3.4,4.6,3.4
	c-1.7,1.3-3.8,2.1-6.1,2.1c-0.4,0-0.8,0-1.2-0.1c2.2,1.4,4.7,2.2,7.5,2.2c9,0,14.1-7.5,14.1-14.1c0-0.2,0-0.4,0-0.6
	C-229.3,303-228.6,302.1-227.8,301.1z"/>
<g>
	<path fill="#BABABA" d="M-209.1,309.2h-2.5v-3.3h2.5V303c0-2.3,1.5-4.5,4.9-4.5c1.4,0,2.5,0.2,2.5,0.2l-0.1,3.1h-2.1
		c-1.3,0-1.4,0.7-1.4,1.6v2.5h3.7l-0.4,3.3h-3.5v9h-3.7L-209.1,309.2L-209.1,309.2z"/>
</g>
<g>
	<path fill="#BABABA" d="M-179.3,302.9c-1.5,0-2.5-1.1-2.5-2.3c0-1.3,1-2.3,2.5-2.3c1.6,0,2.5,1,2.5,2.3S-177.8,302.9-179.3,302.9
		L-179.3,302.9z M-177.1,305v13.1h-4.2V305H-177.1z M-170.3,310.5c0-1.7,1.1-2.5,2.3-2.5c1.3,0,2.3,0.8,2.3,3v7.1h4.2v-7.5
		c0-3.8-2.1-5.9-5-5.9c-1.7,0-3,1-3.8,2.2l-0.1-1.8h-4.2c0,0.4,0.1,3,0.1,3v10.2h4.2V310.5z"/>
</g>
</svg>
